<?xml version="1.0" encoding="UTF-8"?>
<svg version="1.1" xmlns="http://www.w3.org/2000/svg" width="350" height="350">
<path d="M0 0 C115.5 0 231 0 350 0 C350 115.5 350 231 350 350 C234.5 350 119 350 0 350 C0 234.5 0 119 0 0 Z " fill="#FFFEFE" transform="translate(0,0)"/>
<path d="M0 0 C2.95847498 0.01089451 5.91690516 0.01041884 8.87539673 0.01000118 C21.8237114 0.01040838 34.77084792 0.0359139 47.70831299 0.62530518 C48.51152481 0.6611824 49.31473663 0.69705963 50.14228821 0.73402405 C61.78693786 1.35784877 73.50260438 2.58755371 81.89190674 11.38311768 C96.00574681 28.95955318 91.16863003 70.86540588 88.95440674 92.50811768 C87.89707988 101.01830949 85.7812199 109.66529236 79.39190674 115.75811768 C60.63804298 129.64986861 25.83984882 124.49720374 3.4855957 124.39123535 C0.60150116 124.38037724 -2.28254696 124.38081418 -5.1666584 124.38123894 C-67.17461307 124.37909787 -67.17461307 124.37909787 -78.48309326 113.07061768 C-86.12617767 101.35122158 -85.51204572 88.28499363 -85.56121826 74.75811768 C-85.56691833 73.51618652 -85.57261841 72.27425537 -85.57849121 70.99468994 C-85.58787568 68.38621862 -85.59444885 65.7777358 -85.59832764 63.16925049 C-85.60806658 59.20647451 -85.639167 55.24421065 -85.67059326 51.28155518 C-85.67712196 48.73207905 -85.68237295 46.18259926 -85.68621826 43.63311768 C-85.69856506 42.46401855 -85.71091187 41.29491943 -85.72363281 40.09039307 C-85.69471741 29.28418139 -84.40132669 17.85421952 -76.86199951 9.54718018 C-69.01588276 2.11783175 -59.30144587 1.6069572 -48.95574951 1.01983643 C-47.00028954 0.90015755 -47.00028954 0.90015755 -45.00532532 0.77806091 C-30.01198456 -0.08560174 -15.01272861 -0.06969078 0 0 Z " fill="#FF0202" transform="translate(173.35809326171875,112.80438232421875)"/>
<path d="M0 0 C3.86422376 1.5456895 7.02489217 3.08418759 10.5625 5.1875 C12.14224609 6.12142578 12.14224609 6.12142578 13.75390625 7.07421875 C14.82511719 7.70972656 15.89632812 8.34523437 17 9 C18.99897017 10.1684303 20.99895173 11.33513222 23 12.5 C23.97839844 13.07105469 24.95679688 13.64210937 25.96484375 14.23046875 C28.08091214 15.46416113 30.19819504 16.69577168 32.31640625 17.92578125 C33.38761719 18.54839844 34.45882812 19.17101562 35.5625 19.8125 C37.01849609 20.65748047 37.01849609 20.65748047 38.50390625 21.51953125 C40.3690035 22.62574699 42.19571644 23.79714429 44 25 C44 25.66 44 26.32 44 27 C42.234375 28.26171875 42.234375 28.26171875 39.75 29.6875 C38.83476562 30.21859375 37.91953125 30.7496875 36.9765625 31.296875 C35.99429688 31.85890625 35.01203125 32.4209375 34 33 C32.04110679 34.14487592 30.08278218 35.29072521 28.125 36.4375 C25.03570052 38.23628235 21.94469885 40.03204174 18.8515625 41.82421875 C14.31122733 44.46035794 9.79585066 47.10464443 5.375 49.9375 C2 52 2 52 0 52 C0 34.84 0 17.68 0 0 Z " fill="#FFF7F7" transform="translate(157,149)"/>
</svg>
